{"title":"Los Grandes De La Salsa (Live)","uid":7654702,"size":1847863524,"categoryP":"video","categoryS":"music_videos","magnet":"?xt=urn:btih:183d901c5a4a7a225ce53c6a31feab4fcc99a878&amp;dn=Los+Grandes+De+La+Salsa+%28Live%29&amp;tr=udp%3A%2F%2Ftracker.openbittorrent.com%3A80&amp;tr=udp%3A%2F%2Fopen.demonii.com%3A1337&amp;tr=udp%3A%2F%2Ftracker.coppersurfer.tk%3A6969&amp;tr=udp%3A%2F%2Fexodus.desync.com%3A6969","seeders":5,"leechers":0,"uploader":"MusicVideos-HQ","files":1,"time":1348120166,"description":"General\n\nFormat                         : AVI\nFormat/Info                    : Audio Video Interleave\nFile size                      : 1.72 GiB\nDuration                       : 1h 20mn\nOverall bit rate               : 3 057 Kbps\n\nVideo\nID                             : 0\nFormat                         : MPEG-4 Visual\nFormat profile                 : Advanced Simple@L5\nFormat settings, BVOP          : 2\nFormat settings, QPel          : No\nFormat settings, GMC           : No warppoints\nFormat settings, Matrix        : Default (H.263)\nMuxing mode                    : Packed bitstream\nCodec ID                       : XVID\nCodec ID/Hint                  : XviD\nDuration                       : 1h 20mn\nBit rate                       : 2 917 Kbps\nWidth                          : 640 pixels\nHeight                         : 480 pixels\nDisplay aspect ratio           : 4:3\nFrame rate                     : 29.970 fps\nColor space                    : YUV\nChroma subsampling             : 4:2:0\nBit depth                      : 8 bits\nScan type                      : Progressive\nCompression mode               : Lossy\nBits/(Pixel*Frame)             : 0.317\nStream size                    : 1.64 GiB (95%)\nWriting library                : XviD 64\n\nAudio\nID                             : 1\nFormat                         : MPEG Audio\nFormat version                 : Version 1\nFormat profile                 : Layer 3\nCodec ID                       : 55\nCodec ID/Hint                  : MP3\nDuration                       : 1h 20mn\nBit rate mode                  : Constant\nBit rate                       : 128 Kbps\nChannel(s)                     : 2 channels\nSampling rate                  : 44.1 KHz\nCompression mode               : Lossy\nStream size                    : 73.8 MiB (4%)\nAlignment                      : Split accross interleaves\nInterleave, duration           : 33 ms (1.00 video frame)\nWriting library                : LAMELAME_MAJOR_VERSI\n\n","torrent":{"xt":"urn:btih:183d901c5a4a7a225ce53c6a31feab4fcc99a878","amp;dn":"Los+Grandes+De+La+Salsa+%28Live%29","amp;tr":["udp%3A%2F%2Ftracker.openbittorrent.com%3A80","udp%3A%2F%2Fopen.demonii.com%3A1337","udp%3A%2F%2Ftracker.coppersurfer.tk%3A6969","udp%3A%2F%2Fexodus.desync.com%3A6969"],"infoHash":"183d901c5a4a7a225ce53c6a31feab4fcc99a878","infoHashBuffer":{"type":"Buffer","data":[24,61,144,28,90,74,122,34,92,229,60,106,49,254,171,79,204,153,168,120]},"announce":[],"urlList":[]}}